<?xml version="1.0" standalone="no"?>
<!DOCTYPE svg PUBLIC "-//W3C//DTD SVG 20010904//EN"
 "http://www.w3.org/TR/2001/REC-SVG-20010904/DTD/svg10.dtd">
<svg version="1.0" xmlns="http://www.w3.org/2000/svg"
 width="500.000000pt" height="500.000000pt" viewBox="0 0 500.000000 500.000000"
 preserveAspectRatio="xMidYMid meet">
<metadata>
Created by potrace 1.14, written by Peter Selinger 2001-2017
</metadata>
<g transform="translate(0.000000,500.000000) scale(0.100000,-0.100000)"
fill="#000000" stroke="none">
<path d="M2379 4886 c-2 -2 -35 -7 -72 -10 -150 -14 -352 -63 -532 -128 -107
-39 -315 -135 -365 -168 -14 -10 -56 -37 -95 -61 -38 -24 -74 -47 -80 -51
-161 -122 -222 -173 -330 -282 -199 -201 -331 -386 -455 -641 -175 -360 -242
-668 -235 -1080 5 -265 9 -297 70 -568 8 -37 68 -222 74 -232 4 -5 13 -28 20
-50 38 -112 183 -379 274 -505 299 -410 700 -708 1175 -873 127 -45 347 -96
482 -114 78 -10 493 -11 570 -1 327 40 633 142 910 301 369 212 665 505 884
877 31 52 126 249 146 300 7 19 19 49 26 65 37 85 107 355 120 460 3 22 7 46
9 53 9 27 20 203 19 327 0 118 -11 312 -19 325 -1 3 -6 28 -10 55 -28 213
-122 495 -242 725 -237 453 -612 819 -1066 1040 -222 107 -481 187 -737 225
-50 8 -534 17 -541 11z m245 -380 c57 -43 81 -125 57 -189 -25 -66 -117 -116
-185 -103 -71 14 -136 92 -136 162 0 49 40 116 85 142 55 31 129 27 179 -12z
m391 -593 c201 -41 348 -187 381 -377 11 -65 6 -186 -11 -251 -33 -130 -123
-262 -219 -322 -50 -32 -140 -63 -183 -63 -18 0 -33 -3 -33 -7 0 -3 26 -34 58
-67 31 -34 100 -108 152 -166 96 -106 132 -145 320 -350 370 -404 548 -565
715 -648 110 -55 190 -75 303 -76 75 0 67 -21 -15 -36 -72 -14 -201 -17 -275
-6 -120 17 -269 84 -387 174 -86 65 -272 247 -381 372 -41 47 -79 90 -85 96
-5 6 -44 49 -85 95 -41 46 -100 111 -131 144 -30 33 -137 150 -236 260 -202
223 -228 250 -260 260 -21 6 -33 35 -15 35 156 5 217 10 262 20 216 48 322
202 306 444 -14 220 -113 364 -268 391 -27 5 -309 9 -383 6 -20 -1 -20 -8 -19
-830 1 -793 2 -831 20 -862 37 -62 94 -95 171 -98 14 -1 20 -6 18 -14 -4 -9
-68 -12 -278 -11 -149 0 -277 -2 -284 -4 -6 -2 2 -17 20 -36 18 -18 88 -93
157 -167 260 -278 364 -366 540 -458 129 -67 286 -110 383 -105 10 1 17 -6 17
-17 0 -13 -7 -19 -22 -20 -13 0 -34 -2 -48 -5 -39 -6 -191 -6 -234 0 -168 24
-356 115 -521 253 -53 44 -186 176 -275 273 -18 19 -85 91 -150 160 -65 69
-132 141 -150 160 -18 19 -85 91 -149 159 -64 68 -147 158 -186 199 -38 41
-70 80 -69 86 1 10 255 336 394 506 137 168 198 249 204 273 9 36 -30 77 -74
77 -16 0 -30 5 -30 10 0 13 -11 12 190 14 l175 1 3 188 c2 171 1 190 -18 226
-28 57 -80 93 -140 99 -32 3 -50 9 -50 17 0 20 777 18 875 -2z m-1425 -540 c0
-7 -10 -14 -22 -14 -13 -1 -27 -2 -33 -4 -5 -1 -18 -3 -27 -3 -26 -3 -79 -53
-97 -92 -14 -32 -16 -114 -15 -755 1 -806 -2 -771 72 -820 25 -16 56 -27 81
-28 26 -1 41 -6 41 -14 0 -10 -59 -13 -275 -13 -213 0 -275 3 -275 13 0 7 16
13 42 14 68 4 132 59 145 123 3 19 6 355 6 745 0 631 -2 714 -16 742 -18 34
-71 82 -93 84 -8 1 -18 3 -24 4 -5 1 -21 3 -35 4 -14 0 -25 7 -25 14 0 9 62
12 275 12 215 0 275 -2 275 -12z m1009 -2358 c41 -20 79 -70 87 -110 11 -62
-4 -106 -53 -153 -44 -43 -45 -43 -110 -41 -63 2 -68 4 -108 43 -32 31 -44 51
-49 84 -12 78 20 142 89 180 29 16 111 14 144 -3z"/>
<path d="M2305 3305 c-46 -31 -65 -50 -155 -155 -36 -42 -162 -188 -280 -324
-118 -137 -215 -252 -215 -256 0 -7 73 -86 259 -284 21 -22 79 -85 129 -139
l90 -97 48 4 c63 7 101 27 136 73 l28 36 3 451 c1 248 1 511 0 584 l-3 134
-40 -27z"/>
</g>
</svg>
